<svg width="48" height="48" viewBox="0 0 48 48" fill="none" xmlns="http://www.w3.org/2000/svg">
<path d="M39.3894 16.6054C40.5344 10.7106 41.647 4.74026 36.8023 2.3888C28.5764 -1.59682 7.63649 -1.42963 5.28162 9.40003C4.83333 11.471 5.7137 15.1223 7.13959 18.5092C7.67969 14.885 10.8825 9.34071 25.2278 8.43464C34.3772 7.8252 38.1579 11.4926 39.3894 16.6054Z" fill="#0065A1"/>
<path d="M47.9447 10.5056C47.815 6.47147 43.8128 4.07147 39.0491 2.63147C39.5763 3.09043 40.0411 3.61624 40.4318 4.19551C41.5822 5.92675 41.62 9.40001 41.0907 13.0243C37.3586 38.4643 27.6366 37.9681 26.8049 37.9951C37.4018 41.5978 41.3878 32.7906 41.8847 31.8198C42.1547 31.3074 48.2471 19.9654 47.9447 10.5056Z" fill="#006E63"/>
<path d="M28.436 17.4522C28.8946 17.3744 29.3589 17.3347 29.8241 17.3336C31.8561 17.3314 33.8147 18.0918 35.3116 19.4639C33.9549 16.6624 31.1094 14.8863 27.9931 14.8958C27.7663 14.8958 27.5394 14.8958 27.3126 14.9228C28.0152 13.9136 29.0246 13.1572 30.1913 12.7655C28.3725 12.5171 26.5493 13.1907 25.3304 14.5614C25.3304 14.4805 25.3304 14.3942 25.3304 14.3133C25.3342 13.3084 25.035 12.3255 24.4716 11.4927C23.9123 12.3271 23.6151 13.3093 23.6182 14.3133C23.6182 14.3942 23.6182 14.4805 23.6182 14.5614C22.3993 13.1907 20.5762 12.5171 18.7573 12.7655C19.924 13.1572 20.9334 13.9136 21.6361 14.9228C21.4092 14.9228 21.1824 14.8958 20.9555 14.8958C17.8399 14.8933 14.9962 16.667 13.6317 19.4639C15.1299 18.0905 17.0907 17.33 19.1246 17.3336C19.5897 17.3347 20.054 17.3744 20.5126 17.4522C18.5615 18.5208 17.1316 20.3383 16.5536 22.4841C17.7618 20.85 19.5414 19.7295 21.5388 19.3453C21.7657 19.3021 21.9979 19.2644 22.2302 19.2428L24.4986 21.508L26.7725 19.2428C27.0047 19.2428 27.2316 19.3021 27.4638 19.3453C29.4612 19.7295 31.2408 20.85 32.449 22.4841C31.8583 20.3286 30.4076 18.5096 28.436 17.4522V17.4522Z" fill="#006E63"/>
<path d="M24.477 27.2463C25.0527 27.2463 25.5194 26.7803 25.5194 26.2054C25.5194 25.6306 25.0527 25.1646 24.477 25.1646C23.9013 25.1646 23.4346 25.6306 23.4346 26.2054C23.4346 26.7803 23.9013 27.2463 24.477 27.2463Z" fill="#006E63"/>
<path d="M24.477 29.4414C24.9423 29.4414 25.3196 29.0647 25.3196 28.6C25.3196 28.1354 24.9423 27.7587 24.477 27.7587C24.0117 27.7587 23.6344 28.1354 23.6344 28.6C23.6344 29.0647 24.0117 29.4414 24.477 29.4414Z" fill="#006E63"/>
<path d="M24.477 24.6846C25.1989 24.6846 25.7841 24.1002 25.7841 23.3794C25.7841 22.6586 25.1989 22.0742 24.477 22.0742C23.7551 22.0742 23.17 22.6586 23.17 23.3794C23.17 24.1002 23.7551 24.6846 24.477 24.6846Z" fill="#006E63"/>
<path d="M32.9459 27.9906C28.1105 27.9865 23.4627 29.8584 19.9833 33.2113H21.7657C22.2219 33.2078 22.6613 33.0391 23.0025 32.7367C26.5165 29.6992 31.0379 28.0782 35.6842 28.1902C34.7775 28.0577 33.8623 27.991 32.9459 27.9906V27.9906Z" fill="#006E63"/>
<path d="M16.0135 27.9906C20.8489 27.9865 25.4967 29.8584 28.9761 33.2113H27.1937C26.7375 33.2078 26.2981 33.0391 25.9569 32.7367C22.4429 29.6992 17.9215 28.0782 13.2752 28.1902C14.182 28.0577 15.0971 27.991 16.0135 27.9906V27.9906Z" fill="#006E63"/>
<path d="M4.13119 11.6975C2.59188 13.2238 -0.627156 17.0368 0.107389 21.5995C1.06338 27.5321 15.0738 47.5735 25.4276 47.5735C30.483 47.5735 34.3772 43.7982 38.3902 37.8656C29.8565 45.4485 8.31702 34.1119 4.13119 11.6975Z" fill="#00A19B"/>
</svg>
