<?xml version="1.0" standalone="no"?>
<!DOCTYPE svg PUBLIC "-//W3C//DTD SVG 1.1//EN" "http://www.w3.org/Graphics/SVG/1.1/DTD/svg11.dtd" >
<svg xmlns="http://www.w3.org/2000/svg">
<metadata>Generated by IcoMoon</metadata>
<defs>
<font id="icomoon" horiz-adv-x="1024">
<font-face units-per-em="1024" ascent="960" descent="-64" />
<missing-glyph horiz-adv-x="1024" />
<glyph unicode="&#x20;" horiz-adv-x="512" d="" />
<glyph unicode="&#xe900;" glyph-name="amend" horiz-adv-x="768" d="M738.359 762.585c17.963-17.965 28.143-42.517 28.143-67.867v-662.906c0-52.898-42.914-95.812-95.812-95.812h-574.877c-52.896 0-95.813 42.914-95.813 95.812v830.378c0 52.897 42.916 95.813 95.813 96.013h407.407c25.348 0 49.702-10.18 67.665-28.145l167.475-167.473zM693.248 717.274l-167.475 167.473c-4.19 4.192-9.182 6.986-14.771 8.384v-190.628h190.626c-1.395 5.589-4.19 10.58-8.38 14.771zM95.813-0.124h574.877c17.566 0 31.936 14.37 31.936 31.936v606.815h-207.595c-26.547 0-47.906 21.358-47.906 47.906v207.595h-351.313c-17.565 0-31.937-14.372-31.937-31.938v-830.378c0-17.566 14.372-31.936 31.937-31.936zM437.547 464.567l59.085-59.085c3.593-3.593 3.593-9.182 0-12.774l-224.363-224.363-60.083-8.585c-11.777-1.596-21.957 8.384-20.36 20.361l8.583 60.083 224.361 224.363c3.595 3.593 9.184 3.593 12.777 0zM533.359 429.436l32.734 32.738c11.78 11.776 11.78 30.737 0 42.317l-29.542 29.541c-11.575 11.777-30.541 11.777-42.317 0l-32.734-32.737c-3.593-3.593-3.593-9.182 0-12.774l59.085-59.085c3.593-3.593 9.182-3.593 12.774 0z" />
<glyph unicode="&#xe901;" glyph-name="apps" d="M698.885 930.058c-17.965 17.965-42.317 28.145-67.668 28.145h-407.404c-52.897-0.2-95.813-43.116-95.813-96.012v-830.376c0-52.896 42.916-95.814 95.813-95.814h574.875c52.896 0 95.814 42.918 95.814 95.814v662.903c0 25.351-10.182 49.903-28.147 67.868l-167.47 167.473zM829.632 702.502h-190.63v190.628c5.589-1.397 10.579-4.192 14.771-8.383l167.475-167.473c4.192-4.192 6.982-9.182 8.384-14.771zM798.688-0.128h-574.875c-17.566 0-31.938 14.374-31.938 31.942v830.376c0 17.565 14.372 31.937 31.938 31.937h351.313v-207.594c0-26.548 21.359-47.907 47.907-47.907h207.597v-606.813c0-17.568-14.374-31.942-31.942-31.942zM702.877 470.955v15.969c0 13.174-10.779 23.953-23.953 23.953h-335.345c-13.174 0-23.953-10.779-23.953-23.953v-15.969c0-13.174 10.779-23.953 23.953-23.953h335.345c13.174 0 23.953 10.779 23.953 23.953zM702.877 359.173v-15.969c0-13.174-10.779-23.953-23.953-23.953h-335.345c-13.174 0-23.953 10.779-23.953 23.953v15.969c0 13.174 10.779 23.953 23.953 23.953h335.345c13.174 0 23.953-10.779 23.953-23.953zM702.877 215.456v15.968c0 13.171-10.779 23.949-23.953 23.949h-335.345c-13.174 0-23.953-10.778-23.953-23.949v-15.968c0-13.178 10.779-23.955 23.953-23.955h335.345c13.174 0 23.953 10.778 23.953 23.955z" />
<glyph unicode="&#xe902;" glyph-name="arrow-double-left" d="M1001.617 951.931l14.95-16.229c9.907-10.757 9.907-28.197 0-38.956l-413.397-448.747 413.397-448.75c9.907-10.752 9.907-28.194 0-38.955l-14.95-16.23c-9.907-10.752-25.975-10.752-35.891 0l-446.294 484.459c-9.909 10.756-9.909 28.197 0 38.956l446.294 484.453c9.916 10.759 25.984 10.759 35.891 0zM489.615 951.931l14.953-16.229c9.909-10.757 9.909-28.197 0-38.956l-413.398-448.747 413.398-448.75c9.909-10.752 9.909-28.194 0-38.955l-14.953-16.23c-9.909-10.752-25.976-10.752-35.885 0l-446.298 484.459c-9.909 10.756-9.909 28.197 0 38.956l446.298 484.453c9.909 10.759 25.976 10.759 35.885 0z" />
<glyph unicode="&#xe903;" glyph-name="arrow-double-right" d="M22.385 951.931l-14.953-16.229c-9.909-10.757-9.909-28.197 0-38.956l413.398-448.747-413.398-448.75c-9.909-10.752-9.909-28.194 0-38.955l14.953-16.23c9.909-10.752 25.976-10.752 35.886 0l446.298 484.459c9.909 10.756 9.909 28.197 0 38.956l-446.298 484.453c-9.909 10.759-25.976 10.759-35.886 0zM534.385 951.931l-14.953-16.229c-9.909-10.757-9.909-28.197 0-38.956l413.398-448.747-413.398-448.75c-9.909-10.752-9.909-28.194 0-38.955l14.953-16.23c9.909-10.752 25.976-10.752 35.885 0l446.298 484.459c9.907 10.756 9.907 28.197 0 38.956l-446.298 484.453c-9.909 10.759-25.976 10.759-35.885 0z" />
<glyph unicode="&#xe904;" glyph-name="arrow-down" d="M8.069 681.615l16.229 14.953c10.757 9.909 28.197 9.909 38.956 0l448.747-413.398 448.75 413.398c10.752 9.909 28.194 9.909 38.955 0l16.23-14.953c10.752-9.909 10.752-25.976 0-35.886l-484.459-446.298c-10.756-9.909-28.197-9.909-38.956 0l-484.453 446.298c-10.759 9.909-10.759 25.976 0 35.886z" />
<glyph unicode="&#xe905;" glyph-name="arrow-left" d="M745.615 951.931l14.953-16.229c9.909-10.757 9.909-28.197 0-38.956l-413.398-448.747 413.398-448.75c9.909-10.752 9.909-28.194 0-38.955l-14.953-16.23c-9.909-10.752-25.976-10.752-35.885 0l-446.298 484.459c-9.909 10.756-9.909 28.197 0 38.956l446.298 484.453c9.909 10.759 25.976 10.759 35.885 0z" />
<glyph unicode="&#xe906;" glyph-name="arrow-long-down" d="M8.035 461.482l45.255 45.256c10.711 10.71 28.078 10.71 38.791 0l354.581-354.584v780.416c0 15.147 12.281 27.429 27.428 27.429h64c15.148 0 27.429-12.281 27.429-27.429v-780.416l354.583 354.584c10.711 10.71 28.078 10.71 38.791 0l45.255-45.256c10.711-10.711 10.711-28.077 0-38.79l-478.663-478.659c-10.711-10.706-28.078-10.706-38.791 0l-478.658 478.661c-10.713 10.711-10.713 28.077 0 38.788z" />
<glyph unicode="&#xe907;" glyph-name="arrow-right" d="M278.385 951.931l-14.953-16.229c-9.909-10.757-9.909-28.197 0-38.956l413.398-448.747-413.398-448.75c-9.909-10.752-9.909-28.194 0-38.955l14.953-16.23c9.909-10.752 25.976-10.752 35.886 0l446.298 484.459c9.909 10.756 9.909 28.197 0 38.956l-446.298 484.453c-9.909 10.759-25.976 10.759-35.886 0z" />
<glyph unicode="&#xe908;" glyph-name="bell" d="M921.626 290.381c27.941-26.602 36.78-66.801 22.521-102.44-14.559-36.4-49.598-59.941-89.278-59.941h-704.001c-39.68 0-74.72 23.519-89.28 59.919-14.26 35.643-5.44 75.86 22.5 102.462 55.92 53.241 98.7 108.979 98.7 297.819 0 159.18 126.78 288.98 288.082 304.68v35.12c0 17.68 14.318 32 32 32 17.679 0 32-14.32 32-32v-35.1c161.298-15.7 288.077-145.52 288.077-304.7 0-188.859 42.763-244.579 98.681-297.819zM502.868 0c-35.321 0-64 28.76-64 64.059h-64.001c0-70.619 57.441-128.059 128.001-128.059 70.557 0 128 57.439 128 128.059h-64c0-35.299-28.683-64.059-64-64.059zM150.867 192h704.001c28.339 0 42.759 32.859 22.638 52.041-70.14 66.757-118.561 141.458-118.561 344.159 0 134.76-114.56 243.8-256.077 243.8-141.541 0-256.082-109.060-256.082-243.822 0-203.48-48.84-277.778-118.56-344.159-20.040-19.079-5.82-52.019 22.64-52.019z" />
<glyph unicode="&#xe909;" glyph-name="cancel" d="M59.452 900.548c24.993 24.994 65.516 24.994 90.509 0l814.589-814.59c24.992-24.992 24.992-65.517 0-90.509s-65.517-24.992-90.509 0l-814.589 814.589c-24.994 24.993-24.994 65.516 0 90.51zM59.452-4.55c-24.994 24.998-24.994 65.517 0 90.515l814.59 814.584c24.992 24.994 65.517 24.994 90.509 0s24.992-65.516 0-90.51l-814.589-814.589c-24.993-24.992-65.516-24.992-90.51 0z" />
<glyph unicode="&#xe90a;" glyph-name="check-circle" d="M512 960c-282.771 0-512-229.229-512-512s229.229-512 512-512c282.771 0 512 229.229 512 512s-229.229 512-512 512zM512 2.067c-244.984 0-445.935 198.304-445.935 445.933 0 244.982 198.307 445.935 445.935 445.935 244.986 0 445.933-198.307 445.933-445.935 0-244.979-198.304-445.933-445.933-445.933zM431.793 200.109l372.604 369.617c9.715 9.635 9.779 25.321 0.141 35.035l-17.446 17.59c-9.638 9.713-25.325 9.775-35.034 0.14l-337.428-334.721-142.402 143.553c-9.635 9.713-25.322 9.775-35.035 0.14l-17.59-17.447c-9.713-9.635-9.775-25.322-0.14-35.035l177.297-178.732c9.635-9.709 25.321-9.773 35.034-0.141z" />
<glyph unicode="&#xe90b;" glyph-name="clock" d="M512 960c-282.838 0-512-229.162-512-512 0-282.842 229.162-512 512-512 282.842 0 512 229.158 512 512 0 282.838-229.158 512-512 512zM957.933 448c0-245.056-198.4-445.933-445.933-445.933-245.058 0-445.935 198.4-445.935 445.933 0 245.058 198.4 445.935 445.935 445.935 245.056 0 445.933-198.4 445.933-445.935zM482.89 387.51l167.638-121.807c11.149-8.051 26.63-5.574 34.688 5.37l16.928 23.328c8.051 11.149 5.779 26.632-5.37 34.684l-145.549 105.909v302.039c0 13.626-11.148 24.774-24.774 24.774h-28.904c-13.626 0-24.774-11.149-24.774-24.774v-329.497c0-7.845 3.716-15.277 10.116-20.026z" />
<glyph unicode="&#xe90c;" glyph-name="examine" d="M860.198 767c-87.2-2-157.402-75-156.198-162.2 0.998-76.4 55.597-139.8 128-154.4v-211.2c0-131.802-114.797-239.002-256-239.002-141.2 0-256 107.2-256 239.002v17.798c143.8 16 256 138.202 256 286.202v365.2c0 11-7.4 20.6-18.2 23.2l-110.799 27.6c-12.8 3.2-25.8-4.6-29.201-17.4l-3.8-15.6c-3.2-12.8 4.6-25.8 17.4-29.2l80.6-20v-331.6c0-123.6-99-225.797-222.6-226.399-124.2-0.8-225.4 99.999-225.4 223.999v334l80.4 20.2c12.8 3.2 20.6 16.2 17.4 29.2l-3.8 15.4c-3.2 12.8-16.2 20.6-29.2 17.4l-110.6-27.6c-10.8-2.6-18.2-12.2-18.2-23.2v-365.2c0-148 112.2-270.202 256-286.202v-17.798c0-167.2 143.6-303.2 320-303.2 176.403 0 320 136 320 303.002v211.199c72.998 14.8 128 79.4 128 156.8 0 89.8-73.798 162.2-163.802 160zM864 511c-52.998 0-96 43-96 96s43.002 96 96 96c52.998 0 96-43 96-96s-43.002-96-96-96zM864 560c25.997 0 47.002 21 47.002 47s-21.005 47-47.002 47c-25.997 0-47.002-21-47.002-47s21.005-47 47.002-47z" />
<glyph unicode="&#xe90d;" glyph-name="home" d="M1017.532 511.148c5.092-4.322 5.951-11.852 1.968-17.211l-25.173-31.051c-4.221-5.189-11.839-5.983-17.038-1.774l-68.841 55.518v-495.354c0-15.679-12.709-28.388-28.388-28.388h-738.115c-15.679 0-28.389 12.709-28.389 28.388v495.531l-68.613-55.341c-2.493-2.026-5.689-2.977-8.885-2.644s-6.127 1.922-8.149 4.419l-25.195 31.051c-2.021 2.462-2.97 5.631-2.637 8.799s1.922 6.069 4.411 8.057l466.431 375.994c23.363 18.966 56.819 18.966 80.181 0l466.431-375.994zM425.835 49.664h170.332v283.893h-170.332v-283.893zM652.948 49.664h198.724v512.779l-333.378 268.773c-4.334 3.549-10.57 3.549-14.904 0l-333.056-268.63v-512.921h198.723v312.282c0 15.679 12.711 28.389 28.389 28.389h227.115c15.679 0 28.388-12.71 28.388-28.389v-312.282z" />
<glyph unicode="&#xe90e;" glyph-name="license" horiz-adv-x="768" d="M570.884 930.058c-17.963 17.965-42.317 28.145-67.665 28.145h-407.407c-52.896-0.2-95.813-43.116-95.813-96.013v-830.378c0-52.898 42.916-95.812 95.813-95.812h574.877c52.898 0 95.812 42.914 95.812 95.812v662.906c0 25.35-10.18 49.903-28.143 67.867l-167.475 167.473zM701.628 702.502h-190.626v190.628c5.589-1.397 10.581-4.192 14.771-8.384l167.475-167.473c4.19-4.192 6.985-9.182 8.38-14.771zM670.69-0.124h-574.877c-17.565 0-31.937 14.37-31.937 31.936v830.378c0 17.566 14.372 31.938 31.937 31.938h351.313v-207.595c0-26.548 21.359-47.906 47.906-47.906h207.595v-606.815c0-17.566-14.37-31.936-31.936-31.936zM574.878 343.202v15.97c0 13.175-10.778 23.953-23.953 23.953h-135.736v135.735c0 13.175-10.779 23.953-23.953 23.953h-15.969c-13.174 0-23.953-10.778-23.953-23.953v-135.735h-135.735c-13.174 0-23.953-10.778-23.953-23.953v-15.97c0-13.171 10.779-23.953 23.953-23.953h135.735v-135.731c0-13.175 10.779-23.953 23.953-23.953h15.969c13.174 0 23.953 10.778 23.953 23.953v135.731h135.736c13.175 0 23.953 10.782 23.953 23.953z" />
<glyph unicode="&#xe90f;" glyph-name="more-dots" d="M365.714 837.12c0-67.84 55.040-122.88 122.88-122.88s122.88 55.040 122.88 122.88c0 67.84-55.040 122.88-122.88 122.88s-122.88-55.040-122.88-122.88zM488.594 570.88c67.84 0 122.88-55.040 122.88-122.88s-55.040-122.88-122.88-122.88c-67.84 0-122.88 55.040-122.88 122.88s55.040 122.88 122.88 122.88zM488.594-64c-67.84 0-122.88 55.040-122.88 122.88s55.040 122.88 122.88 122.88c67.84 0 122.88-55.040 122.88-122.88s-55.040-122.88-122.88-122.88z" />
<glyph unicode="&#xe910;" glyph-name="new-app" d="M995.802 764.040c17.997-18 28.198-42.6 28.198-67.98v-664.081c0-52.979-42.999-95.979-95.979-95.979h-544.001c-4.88 0-9.82 1.139-14.32 3.379l-113.68 56.841-113.68-56.841c-9.94-4.919-21.8-4.42-31.12 1.399-9.44 5.841-15.18 16.119-15.18 27.221v208.141c-1.501 0.397-2.803 0.755-4.16 1.126l-0.010 0.004c-1.424 0.388-2.909 0.798-4.751 1.289-13.4 3.661-23.96 14.438-27.56 28.198l-0.905 3.443c-11.956 45.547-12 45.709-47.135 81.139-9.92 10.099-13.8 24.998-10.16 38.899l0.111 0.414c12.929 48.329 12.972 48.486-0.111 97.105-3.64 13.901 0.26 28.783 10.16 38.861l0.733 0.742c17.429 17.651 26.045 26.377 31.874 36.681 5.698 10.074 8.733 21.653 14.734 44.55l0.699 2.668c3.62 13.72 14.16 24.52 27.56 28.14l2.661 0.727c22.803 6.226 34.184 9.334 44.003 15.099 9.783 5.743 18.018 14.124 34.457 30.855l2.279 2.32c6.46 6.58 16.2 11.58 27.32 11.58 3.2 0 6.52-0.4 9.92-1.32l1.674-0.46c23.259-6.394 34.922-9.6 46.586-9.6v235.22c0 52.98 42.98 95.98 95.98 96.18h408.26c25.399 0 49.779-10.2 67.78-28.2l167.761-167.76zM768.060 894.82v-190.96h190.959c-1.399 5.6-4.198 10.6-8.397 14.8l-167.761 167.76c-4.203 4.2-9.199 7-14.801 8.4zM66.58 431.42c11.38-44.318 11.38-60.181-0.020-104.781 31.84-32.858 39.34-46.221 51.28-90.001 29.34-7.979 48.1-14.899 74.46-38.656 19.9 9.079 41.56 13.798 63.7 13.798s43.82-4.719 63.7-13.781c26.5 24 45.24 30.882 74.5 38.72 12.12 44.002 19.98 57.583 51.218 89.92-11.52 44.8-11.537 59.9 0 104.802-31.878 32.879-39.339 46.238-51.299 90.138-42.74 12.201-56.6 20.341-87.72 51.361-19.88-5.34-33.82-8.32-50.38-8.32-16.78 0-30.82 3.060-50.42 8.3-31.64-31.54-44.62-39.12-87.76-51.38-12.14-44.16-19.96-57.719-51.26-90.121zM270.34 60.621l81.68-40.841v120.439c-0.145-0.158-0.26-0.256-0.378-0.363-0.093-0.081-0.188-0.162-0.302-0.277-7.52-7.599-17.34-11.58-27.26-11.58-6.98 0-14.020 1.98-20.34 6.020-14.5 9.139-31.12 13.722-47.74 13.722s-33.24-4.582-47.74-13.76c-6.28-3.981-13.32-5.943-20.32-5.943-9.92 0-19.78 3.942-27.28 11.58-0.12 0.124-0.215 0.209-0.31 0.29-0.095 0.085-0.19 0.171-0.31 0.29v-120.418l81.68 40.841c9 4.497 19.62 4.497 28.62 0zM416.020-0.021h512.001c17.6 0 32 14.4 32 32h0.017v608.021h-207.957c-26.603 0-48 21.26-48 47.86v208.14h-352.061c-17.6 0-32-14.58-32-32.18v-225.020c7.92-1.28 15.6-4.38 21.48-10.32 17.951-18.414 26.693-27.386 37.13-33.432 10.297-5.965 22.244-9.082 46.31-15.607 13.362-3.64 23.901-14.44 27.502-28.18 0.307-1.176 0.61-2.324 0.905-3.444 11.977-45.544 12.019-45.706 47.155-81.137 9.899-10.099 13.798-24.998 10.138-38.899-13.082-48.777-13.060-48.862-0.051-97.327l0.051-0.192c3.661-13.901-0.239-28.8-10.138-38.882-17.933-18.15-26.714-26.97-32.627-37.414-5.918-10.453-8.96-22.532-15.433-47.223-3.601-13.722-14.14-24.521-27.541-28.16-1.252-0.337-2.338-0.631-3.353-0.905-1.886-0.512-3.525-0.956-5.527-1.476v-176.222z" />
<glyph unicode="&#xe911;" glyph-name="person" d="M740.571 704c0-141.4-114.6-256-256-256s-256 114.6-256 256c0 141.4 114.6 256 256 256s256-114.6 256-256zM630.371 384h33.4c148.4 0 268.8-120.4 268.8-268.8v-83.2c0-52.999-43.001-96-96-96h-704c-53 0-96 43.001-96 96v83.2c0 148.4 120.4 268.8 268.8 268.8h33.4c44.6-20.4 93.8-32 145.8-32s101.4 11.6 145.8 32z" />
<glyph unicode="&#xe912;" glyph-name="resources" d="M709.336 888.853l313.475-797.171c3.874-11.042-2.014-23.273-13.084-27.164l-13.426-4.693c-11.11-3.897-22.63 0.102-29.121 18.591-29.065-4.142-104.96-29.742-134.218-46.967 6.326-18.045 0.302-28.678-11.15-32.677-2.617-0.91-4.824-1.712-6.73-2.406v0h-0.006c-6.537-2.378-9.557-3.476-13.687-3.476-8.801 0-17.101 5.513-20.178 14.256l-269.21 684.624v-641.991c0-31.414-25.475-56.889-56.889-56.889h-170.667c-10.596 0-19.947 3.664-28.444 8.71-8.497-5.029-17.849-8.71-28.444-8.71h-170.667c-31.413 0-56.889 25.475-56.889 56.889v796.444c0 31.413 25.476 56.889 56.889 56.889h170.667c10.596 0 19.947-3.68 28.427-8.711 8.497 5.031 17.849 8.711 28.444 8.711h170.667c31.413 0 56.889-25.476 56.889-56.889v-12.231c7.193-4.238 8.765-8.817 10.786-14.698l0.592-1.711c29.067 4.143 104.961 29.742 134.224 46.969-6.315 18.027-0.341 28.658 11.145 32.676 2.6 0.91 4.796 1.708 6.696 2.398 6.554 2.385 9.58 3.486 13.733 3.486 8.818 0 17.118-5.511 20.178-14.258zM56.889 49.778h170.667v113.778h-170.667v-113.778zM227.556 220.444v455.111h-170.667v-455.111h170.667zM56.889 732.444h170.667v113.778h-170.667v-113.778zM455.111 49.778v113.778h-170.667v-113.778h170.667zM284.444 220.444h170.667v455.111h-170.667v-455.111zM455.111 732.444v113.778h-170.667v-113.778h170.667zM540.071 769.991l276.193-690.95c20.429 10.843 89.372 38.542 134.224 46.985l-276.196 690.934c-20.423-10.827-89.384-38.542-134.221-46.969z" />
<glyph unicode="&#xe913;" glyph-name="return" d="M24.774 960h20.645c13.682 0 24.774-11.093 24.774-24.774v-228.387c89.179 151.903 254.429 253.749 443.444 253.159 281.576-0.882 510.804-231.242 510.363-512.815-0.442-282.395-229.504-511.182-512-511.182-131.976 0-252.288 49.933-343.077 131.936-10.556 9.536-11.053 25.933-0.995 35.994l14.594 14.592c9.297 9.299 24.256 9.734 34.028 0.941 78.227-70.406 181.768-113.267 295.451-113.267 243.085 0 441.805 196.813 441.805 441.804 0 243.085-196.813 441.807-441.805 441.807-171.070 0-319.457-97.191-392.854-239.484h235.951c13.681 0 24.774-11.092 24.774-24.774v-20.645c0-13.682-11.092-24.774-24.774-24.774h-330.323c-13.682 0-24.774 11.092-24.774 24.774v330.322c0 13.682 11.093 24.774 24.774 24.774z" />
<glyph unicode="&#xe914;" glyph-name="search" d="M772.691 266.354l242.324-242.324c9.387-9.387 9.387-24.55 0-33.937l-45.107-45.107c-9.387-9.387-24.55-9.387-33.937 0l-242.324 242.324c-4.392 4.591-6.987 10.58-6.987 16.967v26.348c-72.858-62.877-167.672-101.002-271.469-101.002-229.352 0-415.189 185.836-415.189 415.188s185.837 415.189 415.189 415.189c229.352 0 415.188-185.837 415.188-415.189 0-103.797-38.125-198.612-101.002-271.469h26.348c6.387 0 12.376-2.395 16.967-6.987zM95.813 544.811c0-176.455 142.921-319.376 319.376-319.376s319.376 142.921 319.376 319.376c0 176.456-142.921 319.376-319.376 319.376s-319.376-142.921-319.376-319.376z" />
<glyph unicode="&#xe915;" glyph-name="services" d="M754.925 431.033c-31.136 31.139-72.058 46.709-112.979 46.709-30.739 0-61.479-8.783-88.028-26.548l-170.667 170.667v146.514l-255.501 191.626-127.75-127.75 191.626-255.501h146.514l170.667-170.667c-41.12-62.079-34.333-146.312 20.36-201.007l248.516-248.518c12.371-12.371 28.742-18.758 45.107-18.758 16.371 0 32.736 6.189 45.114 18.758l135.539 135.539c24.749 25.152 24.749 65.472-0.205 90.426l-248.314 248.511zM319.376 640.624h-95.812l-139.128 185.637 49.304 49.304 185.637-139.128v-95.812zM822.592 1.869l-248.314 248.518c-18.164 18.163-28.145 42.118-28.145 67.667s9.981 49.702 28.145 67.667c18.164 18.164 42.118 28.145 67.667 28.145s49.702-9.981 67.667-28.145l248.518-248.314-135.539-135.539zM159.688 65.747c-17.566 0-31.938 14.374-31.938 31.936 0 17.568 14.372 31.936 31.938 31.936s31.937-14.368 31.937-31.936c0-17.562-14.372-31.936-31.937-31.936zM552.521 826.461c45.311 45.311 104.996 69.664 167.274 69.664 13.773 0 27.546-1.197 41.318-3.593l-138.33-138.529 27.546-165.677 165.875-27.546 138.33 138.33c13.376-76.252-10.579-153.3-66.067-208.593-17.766-17.766-38.131-31.938-59.885-42.916l47.11-47.108c20.755 12.376 40.32 27.147 57.882 44.912 75.456 75.453 105.197 182.444 79.245 286.042-4.589 18.963-19.36 33.933-38.125 39.124-18.963 5.19-39.322 0-53.293-13.973l-127.552-127.551-88.23 14.771-14.771 88.228 127.552 127.551c13.773 13.773 19.162 34.133 13.971 52.897-5.184 18.963-20.358 33.534-39.322 38.325-103.2 25.75-210.188-3.793-285.84-79.245-25.75-25.75-45.711-55.691-60.083-87.828v-135.336l44.114-44.113c-19.162 80.642 3.194 164.079 61.281 222.166zM89.425 27.622c33.135-33.139 91.022-33.139 124.157 0l217.375 217.376c7.386-20.96 17.566-41.12 30.94-59.488l-203.203-203.002c-28.545-28.742-66.67-44.512-107.191-44.512s-78.646 15.77-107.191 44.314c-59.085 59.283-59.085 155.494 0 214.579l291.63 291.631 45.112-45.112-291.631-291.633c-34.133-34.131-34.133-90.022 0-124.154z" />
<glyph unicode="&#xe916;" glyph-name="support" d="M160 512c17.673 0 32 14.327 32 32v32c0 176.44 143.56 320 320 320s320-143.56 320-320v-32c-0.096-88.324-71.674-159.901-160-160h-64c0 35.347-28.653 64-64 64h-64c-35.346 0-64-28.653-64-64s28.654-64 64-64h192c123.648 0.154 223.846 100.352 224 224v32c0 211.76-172.237 384-384 384-211.76 0-384-172.24-384-384v-32c0-17.673 14.327-32 32-32zM694.6 256h9.4c141.382 0 256-114.618 256-256 0-35.347-28.653-64-64-64h-768c-35.346 0-64 28.653-64 64 0.022 141.37 114.631 255.962 256 255.962h9.48c24.26 0 47.88-5.76 70.84-13.562 72.401-24.563 150.879-24.563 223.28 0 23 7.802 46.68 13.6 71 13.6zM320 192c-105.993-0.109-191.89-86.010-192-192l768 0.038c-0.109 105.997-86.010 191.891-192 192h-9.4c-13.82 0-29.86-3.238-50.48-10.221-85.709-29.062-178.611-29.062-264.32 0-20.479 6.944-36.479 10.182-50.32 10.182h-9.48zM687.427 654.697c-30.852 69.197-99.664 113.641-175.427 113.303-75.894 0.367-144.817-44.198-175.626-113.558s-17.667-150.377 33.485-206.442c-11.549-19.361-17.716-41.457-17.86-64 0-1.329 0.18-2.607 0.361-3.885 0.143-1.011 0.286-2.021 0.339-3.055-58.5 46.94-96.7 118.1-96.7 198.94 0 141.385 114.615 256 256 256s256-114.615 256-256c0-29.16-6.003-56.72-14.899-82.84-17.446-28.023-48.090-45.087-81.101-45.16h-17.18c-0.041 0.074-0.108 0.137-0.174 0.199-0.095 0.089-0.186 0.175-0.186 0.281 50.89 56.13 63.818 137.020 32.967 206.217z" />
<glyph unicode="&#xe917;" glyph-name="edit" d="M986.5 847.48l-75.015 75.020c-24.986 25-57.739 37.5-90.5 37.5s-65.521-12.5-90.523-37.48l-704.76-704.759-25.4-228.44c-3.2-28.76 19.46-53.321 47.6-53.321 1.78 0 3.56 0.102 5.38 0.3l228.28 25.22 704.96 704.96c49.979 49.98 49.979 131.020-0.022 181zM252.182 22.638l-186.060-20.619 20.72 186.339 527.781 527.783 165.541-165.541-527.982-527.962zM825.403 595.86l-165.541 165.541 115.862 115.86c12.076 12.080 28.16 18.74 45.261 18.74s33.156-6.66 45.261-18.74l75.015-75.020c24.942-24.96 24.942-65.559 0-90.519l-115.858-115.86z" />
<glyph unicode="&#xe918;" glyph-name="exit" horiz-adv-x="1195" d="M419.897 960h-307.924c-61.818 0-111.973-55.076-111.973-122.96v-737.754c0-67.891 50.154-122.965 111.973-122.965h307.924c15.397 0 27.994 13.833 27.994 30.737v20.497c0 16.905-12.597 30.737-27.994 30.737h-307.924c-20.529 0-37.324 18.449-37.324 40.994v737.754c0 22.543 16.796 40.987 37.324 40.987h307.924c15.397 0 27.994 13.833 27.994 30.74v20.493c0 16.907-12.597 30.74-27.994 30.74zM746.251 891.86l16.562 18.188c10.964 12.040 28.693 12.040 39.657 0l383.97-420.113c10.965-12.040 10.965-31.508 0-43.548l-383.736-420.112c-10.964-12.041-28.693-12.041-39.657 0l-16.563 18.185c-10.964 12.041-10.964 31.514 0 43.554l307.69 336.6h-652.938c-15.397 0-27.994 13.833-27.994 30.74v25.616c0 16.907 12.597 30.74 27.994 30.74h652.938l-307.923 336.602c-10.964 12.040-10.964 31.508 0 43.548z" />
<glyph unicode="&#xe919;" glyph-name="exit-app" horiz-adv-x="1280" d="M806.534 960h320.544c64.352 0 116.563-57.333 116.563-128v-768c0-70.669-52.211-128-116.563-128h-320.544c-16.032 0-29.146 14.4-29.146 32v21.331c0 17.6 13.114 32 29.146 32h320.544c21.37 0 38.854 19.2 38.854 42.669v768c0 23.467-17.485 42.667-38.854 42.667h-320.544c-16.032 0-29.146 14.4-29.146 32v21.333c0 17.6 13.114 32 29.146 32zM466.801 889.067l-17.242 18.933c-11.414 12.533-29.869 12.533-41.283 0l-399.712-437.333c-11.413-12.534-11.413-32.8 0-45.334l399.469-437.333c11.414-12.531 29.869-12.531 41.283 0l17.242 18.931c11.414 12.538 11.414 32.8 0 45.338l-320.304 350.398h679.705c16.026 0 29.139 14.4 29.139 32v26.666c0 17.6-13.114 32-29.139 32h-679.705l320.547 350.4c11.413 12.534 11.413 32.8 0 45.334z" />
<glyph unicode="&#xe91a;" glyph-name="exp-mark" horiz-adv-x="366" d="M45.72 365.602l-27.2 544c-1.37 27.418 20.488 50.398 47.94 50.398h187.080c27.452 0 49.31-22.98 47.94-50.398l-27.2-544c-1.278-25.546-22.362-45.602-47.94-45.602h-132.68c-25.578 0-46.662 20.056-47.94 45.602zM160-64c88.224 0 160 71.775 160 160s-71.776 160-160 160c-88.224 0-160-71.775-160-160s71.776-160 160-160z" />
<glyph unicode="&#xe91b;" glyph-name="calendar" horiz-adv-x="951" d="M896 32v704c0 53-43.001 96-96 96h-96v104c0 13.2-10.8 24-24 24h-80.001c-13.199 0-24-10.8-24-24v-104h-256v104c0 13.2-10.8 24-24 24h-80.001c-13.199 0-24-10.8-24-24v-104h-96c-53 0-96-43-96-96v-704c0-52.999 43-96 96-96h704c52.999 0 96 43.001 96 96zM216 384h80.001c13.199 0 24 10.8 24 24v80.001c0 13.199-10.8 24-24 24h-80.001c-13.199 0-24-10.8-24-24v-80.001c0-13.199 10.8-24 24-24zM512 488v-80.001c0-13.199-10.8-24-24-24h-80.001c-13.199 0-24 10.8-24 24v80.001c0 13.199 10.8 24 24 24h80.001c13.199 0 24-10.8 24-24zM704 408v80.001c0 13.199-10.8 24-24 24h-80.001c-13.199 0-24-10.8-24-24v-80.001c0-13.199 10.8-24 24-24h80.001c13.199 0 24 10.8 24 24zM512 296v-80.002c0-13.195-10.8-23.998-24-23.998h-80.001c-13.199 0-24 10.803-24 23.998v80.002c0 13.199 10.8 24 24 24h80.001c13.199 0 24-10.8 24-24zM320 215.998v80.002c0 13.199-10.8 24-24 24h-80.001c-13.199 0-24-10.8-24-24v-80.002c0-13.195 10.8-23.998 24-23.998h80.001c13.199 0 24 10.803 24 23.998zM704 296v-80.002c0-13.195-10.8-23.998-24-23.998h-80.001c-13.199 0-24 10.803-24 23.998v80.002c0 13.199 10.8 24 24 24h80.001c13.199 0 24-10.8 24-24zM800 640v-595.997c0-6.605-5.398-12.003-12.003-12.003h-679.997c-6.6 0-12 5.398-12 12.003v595.997h704z" />
<glyph unicode="&#xe91c;" glyph-name="eye" horiz-adv-x="1536" d="M1526.718 486.933c12.368-24.472 12.368-53.368 0-77.84-144.53-282.051-430.907-473.093-758.718-473.093-327.815 0-614.108 190.91-758.721 473.067-12.371 24.472-12.371 53.368 0 77.84 144.534 282.053 430.907 473.093 758.721 473.093 327.812 0 614.107-190.907 758.718-473.067zM768 746.666c-28.262-0.442-56.319-4.931-83.308-13.333 12.484-21.955 19.131-46.744 19.307-72 0-82.474-66.859-149.334-149.334-149.334-25.255 0.176-50.044 6.823-72 19.307-35.524-123.202 11.773-255.312 117.418-327.977 105.645-72.66 245.931-69.566 348.273 7.673 102.341 77.247 143.777 211.313 102.861 332.83s-154.997 203.221-283.216 202.834zM133.519 448c130.24-237.334 371.414-384 634.481-384 263.095 0 504.269 146.666 634.478 384-130.238 237.333-371.383 384-634.478 384s-504.242-146.667-634.481-384z" />
<glyph unicode="&#xe91d;" glyph-name="reject" horiz-adv-x="768" d="M738.355 762.585c17.965-17.965 28.147-42.516 28.147-67.868v-662.903c0-52.896-42.918-95.814-95.814-95.814h-574.875c-52.897 0-95.813 42.918-95.813 95.814v830.376c0 52.897 42.916 95.813 95.813 96.012h407.404c25.35 0 49.703-10.18 67.668-28.145l167.47-167.473zM693.248 717.274l-167.475 167.473c-4.192 4.191-9.182 6.986-14.771 8.383v-190.628h190.63c-1.402 5.589-4.192 10.579-8.384 14.771zM95.813-0.128h574.875c17.568 0 31.942 14.374 31.942 31.942v606.813h-207.597c-26.548 0-47.907 21.358-47.907 47.907v207.594h-351.313c-17.566 0-31.938-14.372-31.938-31.937v-830.376c0-17.568 14.372-31.942 31.938-31.942zM412.89 383.249l108.035 108.035c2.724 2.725 2.724 7.153 0 9.877l-19.763 19.763c-2.725 2.725-7.153 2.725-9.877 0l-108.035-108.035-108.035 108.044c-2.724 2.724-7.153 2.724-9.877 0l-19.772-19.763c-2.724-2.725-2.724-7.153 0-9.877l108.044-108.044-108.044-108.036c-2.724-2.726-2.724-7.149 0-9.875l19.763-19.763c2.725-2.726 7.153-2.726 9.877 0l108.044 108.035 108.035-108.035c2.724-2.726 7.152-2.726 9.877 0l19.763 19.763c2.724 2.726 2.724 7.149 0 9.875l-108.035 108.036z" />
<glyph unicode="&#xe91e;" glyph-name="plus" d="M1002.664 512h-426.664v426.667c0 11.787-9.547 21.333-21.334 21.333h-85.333c-11.787 0-21.334-9.547-21.334-21.333v-426.667h-426.667c-11.787 0-21.333-9.547-21.333-21.334v-85.333c0-11.787 9.547-21.334 21.333-21.334h426.667v-426.664c0-11.791 9.547-21.336 21.334-21.336h85.333c11.787 0 21.334 9.545 21.334 21.336v426.664h426.664c11.791 0 21.336 9.547 21.336 21.334v85.333c0 11.787-9.545 21.334-21.336 21.334z" />
<glyph unicode="&#xe91f;" glyph-name="submit" horiz-adv-x="768" d="M739.802 764.040c17.997-18 28.198-42.6 28.198-67.98v-664.079c0-52.979-43.002-95.981-95.981-95.981h-576.039c-52.98 0-95.98 43.002-95.98 95.981v831.839c0 52.98 43 95.98 95.98 96.18h408.28c25.38 0 49.78-10.2 67.78-28.2l167.762-167.76zM512.060 894.82v-190.96h190.961c-1.402 5.6-4.198 10.6-8.403 14.8l-167.757 167.76c-4.2 4.2-9.2 7-14.8 8.4zM672.019-0.019c17.6 0 32 14.4 32 32v608.019h-207.959c-26.6 0-48 21.26-48 47.86v208.14h-352.080c-17.6 0-32-14.58-32-32.18v-831.839c0-17.6 14.4-32 32-32h576.039zM343.82 526.62c21.36 22.44 59 22.42 80.38 0.040l136.24-143.56c15.64-16.38 19.88-40.58 10.88-61.62-8.82-20.622-28-33.441-50-33.441h-105.32v-176.038c0-8.838-7.16-16-16-16h-32c-8.84 0-16 7.162-16 16v176.019h-105.3c-22 0-41.18 12.819-50 33.441-9 21.040-4.74 45.26 10.88 61.66l136.24 143.5zM384 476.040l-117.68-124h235.36l-117.68 124z" />
<glyph unicode="&#xe920;" glyph-name="cog" horiz-adv-x="964" d="M873.207 410.676l65.753-37.96c19.305-11.148 28.618-34.079 22.269-55.451-22.612-76.107-62.856-144.619-116.007-200.806-15.39-16.27-39.954-19.835-59.35-8.638l-65.65 37.906c-26.263-19.986-54.947-36.569-85.371-49.357v-75.842c0-22.438-15.426-41.942-37.265-47.11-75.916-17.968-155.503-17.962-231.405 0-21.84 5.168-37.268 24.672-37.268 47.11v75.842c-30.422 12.788-59.105 29.371-85.365 49.357l-65.653-37.906c-19.396-11.192-43.96-7.632-59.352 8.638-53.149 56.187-93.395 124.699-116.005 200.806-6.349 21.371 2.964 44.305 22.271 55.451l65.75 37.96c-4.133 32.734-4.133 65.858 0 98.593l-65.75 37.96c-19.308 11.148-28.621 34.079-22.271 55.449 22.61 76.109 62.856 144.621 116.005 200.808 15.39 16.271 39.953 19.832 59.352 8.634l65.653-37.901c26.26 19.986 54.943 36.57 85.365 49.358v75.839c0 22.443 15.43 41.946 37.268 47.114 75.916 17.965 155.505 17.963 231.405 0 21.839-5.168 37.265-24.673 37.265-47.114v-75.839c30.425-12.789 59.109-29.373 85.371-49.358l65.65 37.901c19.396 11.198 43.96 7.638 59.35-8.634 53.152-56.186 93.395-124.697 116.007-200.808 6.349-21.37-2.964-44.303-22.269-55.449l-65.753-37.96c4.132-32.734 4.132-65.858 0-98.593zM713.565 224.075l93.371-53.911c39.737 44.532 69.939 96.756 88.57 153.148l-93.407 53.912c13.179 71.446 13.173 94.063 0 165.491l93.407 53.914c-18.631 56.395-48.833 108.615-88.57 153.172l-93.371-53.955c-55.194 47.244-74.722 58.6-143.232 82.805v107.827c-58.351 12.057-118.551 12.057-176.901 0v-107.825c-68.504-24.203-88.033-35.556-143.232-82.805l-93.37 53.955c-39.738-44.559-69.942-96.779-88.572-153.172l93.41-53.915c-13.182-71.445-13.176-94.082 0-165.491l-93.41-53.914c18.63-56.392 48.832-108.61 88.572-153.148l93.37 53.911c55.818-47.712 75.444-58.832 143.232-82.781v-107.827c58.353-12.041 118.548-12.041 176.901 0v107.827c69.522 24.564 88.816 36.268 143.232 82.781zM481.882 653.531c106.73 0 193.56-86.83 193.56-193.559 0-106.727-86.83-193.556-193.56-193.556s-193.559 86.829-193.559 193.556c0 106.73 86.83 193.559 193.559 193.559zM352.843 459.971c0-71.153 57.886-129.038 129.040-129.038s129.042 57.886 129.042 129.038c0 71.154-57.889 129.040-129.042 129.040s-129.040-57.886-129.040-129.040z" />
<glyph unicode="&#xe921;" glyph-name="log" horiz-adv-x="768" d="M494.8 832h177.2c53 0 96-43 96-96v-704c0-53.001-43-96-96-96h-576c-53 0-96 42.999-96 96v704c0 53 43 96 96 96h177.2c-0.8 5.2-1.2 10.6-1.2 16 0 61.8 50.2 112 112 112s112-50.2 112-112c0-5.4-0.4-10.8-1.2-16zM176 448c0-26.6 21.4-48 48-48s48 21.4 48 48c0 26.6-21.4 48-48 48s-48-21.4-48-48zM560 480c8.8 0 16-7.2 16-16v-32c0-8.8-7.2-16-16-16h-224c-8.8 0-16 7.2-16 16v32c0 8.8 7.2 16 16 16h224zM560 288c8.8 0 16-7.2 16-16v-32c0-8.8-7.2-16-16-16h-224c-8.8 0-16 7.2-16 16v32c0 8.8 7.2 16 16 16h224zM224 304c26.6 0 48-21.4 48-48s-21.4-48-48-48c-26.6 0-48 21.4-48 48s21.4 48 48 48zM384 896c-26.6 0-48-21.4-48-48s21.4-48 48-48c26.6 0 48 21.4 48 48s-21.4 48-48 48zM672 0c17.6 0 32 14.396 32 32v704c0 17.6-14.4 32-32 32h-96v-40c0-13.2-10.8-24-24-24h-336c-13.2 0-24 10.8-24 24v40h-96c-17.6 0-32-14.4-32-32v-704c0-17.604 14.4-32 32-32h576z" />
</font>
</defs>
</svg>
